<svg width="81" height="81" viewBox="0 0 81 81" fill="none" xmlns="http://www.w3.org/2000/svg">
<path d="M73.6023 0.5H8.14773C4.12955 0.5 0.875 3.75455 0.875 7.77273V73.2273C0.875 77.2455 4.12955 80.5 8.14773 80.5H44.5114V47.7727H33.6023V36.8636H44.5114V31.0055C44.5114 19.9145 49.915 15.0455 59.1332 15.0455C63.5477 15.0455 65.8823 15.3727 66.9877 15.5218V25.9545H60.7005C56.7877 25.9545 55.4205 28.02 55.4205 32.2018V36.8636H66.8895L65.3332 47.7727H55.4205V80.5H73.6023C77.6205 80.5 80.875 77.2455 80.875 73.2273V7.77273C80.875 3.75455 77.6168 0.5 73.6023 0.5Z" fill="#94391A"/>
</svg>
