<svg width="81" height="80" viewBox="0 0 81 80" fill="none" xmlns="http://www.w3.org/2000/svg">
<path d="M24.5114 0C11.475 0 0.875 10.6 0.875 23.6364V56.3636C0.875 69.4 11.475 80 24.5114 80H57.2386C70.275 80 80.875 69.4 80.875 56.3636V23.6364C80.875 10.6 70.275 0 57.2386 0H24.5114ZM62.6932 14.5455C64.6932 14.5455 66.3295 16.1818 66.3295 18.1818C66.3295 20.1818 64.6932 21.8182 62.6932 21.8182C60.6932 21.8182 59.0568 20.1818 59.0568 18.1818C59.0568 16.1818 60.6932 14.5455 62.6932 14.5455ZM40.875 20C51.9114 20 60.875 28.9636 60.875 40C60.875 51.0364 51.9114 60 40.875 60C29.8386 60 20.875 51.0364 20.875 40C20.875 28.9636 29.8386 20 40.875 20ZM40.875 23.6364C31.8568 23.6364 24.5114 30.9818 24.5114 40C24.5114 49.0182 31.8568 56.3636 40.875 56.3636C49.8932 56.3636 57.2386 49.0182 57.2386 40C57.2386 30.9818 49.8932 23.6364 40.875 23.6364Z" fill="#94391A"/>
</svg>
