<svg width="81" height="80" viewBox="0 0 81 80" fill="none" xmlns="http://www.w3.org/2000/svg">
<path d="M70.6012 0H9.64881C4.39738 0 0.125 4.27238 0.125 9.52381V70.4762C0.125 75.7276 4.39738 80 9.64881 80H70.6012C75.8526 80 80.125 75.7276 80.125 70.4762V9.52381C80.125 4.27238 75.8526 0 70.6012 0ZM62.9936 34.901C62.5612 34.941 62.1231 34.9676 61.6793 34.9676C56.6831 34.9676 52.2926 32.3981 49.7383 28.5143C49.7383 38.7029 49.7383 50.2952 49.7383 50.4895C49.7383 59.459 42.466 66.7314 33.4964 66.7314C24.5269 66.7314 17.2545 59.459 17.2545 50.4895C17.2545 41.52 24.5269 34.2476 33.4964 34.2476C33.8355 34.2476 34.1669 34.2781 34.5002 34.299V42.3029C34.1669 42.2629 33.8393 42.2019 33.4964 42.2019C28.9174 42.2019 25.2069 45.9124 25.2069 50.4914C25.2069 55.0705 28.9174 58.781 33.4964 58.781C38.0755 58.781 42.1193 55.1733 42.1193 50.5943C42.1193 50.4133 42.1993 13.2724 42.1993 13.2724H49.8488C50.5688 20.1124 56.0907 25.5105 62.9936 26.0057V34.901Z" fill="#94391A"/>
</svg>
