<svg width="148" height="54" viewBox="0 0 183 66" fill="none" xmlns="http://www.w3.org/2000/svg"><g clip-path="url(#a)"><path d="M39.996 66q1.132 0 2.24-.019h-4.481q1.108.02 2.241.019" fill="red"/><path d="M67.71 60.015q.002-.199-.061-.398c-.055-.178-.95-.313-2.031-.313H55.155c5.245-3.301 9.899-8.228 13.66-14.347.307.18.627.35.956.501 7.472 3.484 16.997-1.431 21.273-10.974 4.274-9.545 1.686-20.109-5.786-23.59-2.06-.96-4.277-1.285-6.495-1.045a84 84 0 0 0-.032-6.858C78.653 1.314 77.388 0 75.863 0H3.453C1.93 0 .665 1.314.589 2.99A82 82 0 0 0 .5 6.81c0 23.528 9.744 43.736 23.664 52.494h-9.792c-1.081 0-1.979.135-2.031.313a1.3 1.3 0 0 0-.062.398c0 3.144 11.216 5.72 25.477 5.966h4.482c14.258-.247 25.474-2.822 25.474-5.966zm10.456-42.78c1.81-.682 3.544-.74 4.9-.112 3.658 1.708 5.401 8.87 2.25 15.9S75.717 43.4 72.055 41.69a4.8 4.8 0 0 1-1.032-.662c3.536-6.893 6.032-14.99 7.142-23.793M23.559 14.64l-.007-.007c-.242-.288.227-.86.663-.804 1.421.2 2.625.646 3.778 1.168 3.137 1.416 5.811 3.333 8.162 5.595.924.89 1.822 1.807 2.775 2.676.453.42.574.953.249 1.705-.131.3-.224.575-.283.837-.56.584-1.114 1.168-1.66 1.739-.516.538-1.03 1.08-1.546 1.615-3.95-4.916-8.071-9.692-12.131-14.524m13.608 22.403c-1.587 2.158-3.197 4.288-4.79 6.442a135 135 0 0 0-2.524 3.502l-.074.098a3 3 0 0 1-.158.175c-.367.353-.872.527-1.429.527-.766 0-1.641-.328-2.433-.975-1.418-1.157-1.905-2.907-.99-3.868 2.488-2.604 5.017-5.167 7.523-7.752 1.495-1.542 2.983-3.09 4.474-4.638l.026-.025 2.551-2.676a268 268 0 0 1 2.397-2.492c.348-.354.359-.752.081-1.401-1.132-2.614-1.047-4.795.254-6.402 2.19-2.71 4.47-5.345 6.717-8.005q.056-.067.117-.121l.238-.285c.081-.099.209-.143.352-.143.21 0 .456.095.671.274.367.307.503.749.305.981l-5.251 6.238c-.213.251-.069.724.329 1.055q.133.11.271.178c.326.167.663.16.825-.037l5.255-6.238a.46.46 0 0 1 .356-.143c.206 0 .452.096.664.274l.102.084c.368.307.503.745.309.982l-5.257 6.238c-.209.251-.062.724.33 1.055.117.098.244.168.367.222q.094.034.183.054c.224.051.433.007.553-.135l5.254-6.238c.08-.098.206-.143.351-.143.21 0 .456.095.671.274l.102.084c.366.307.503.745.304.982L50.94 21.28c-.212.252-.065.724.33 1.055.085.07.18.132.269.178.329.167.663.158.829-.036l5.254-6.238c.082-.099.21-.143.353-.143.206 0 .453.095.67.273l.023.02c.367.306.503.747.305.981l-5.896 7.005c-.353.423-.7.806-1.045 1.237a4.4 4.4 0 0 1-2.015 1.424 5 5 0 0 1-.552.161 6.6 6.6 0 0 1-1.533.167q-1.088 0-2.345-.288c-.055-.011-.102-.022-.154-.03a3 3 0 0 0-.274-.037q-.065-.005-.125-.006c-.365 0-.62.13-.82.412a1754 1754 0 0 1-4.857 6.652c-.73.995-1.46 1.993-2.193 2.986zm16.078 10.225c-1.389 1.19-3.217 1.348-4.023.263-2.185-2.943-4.324-5.92-6.484-8.88-.764-1.046-1.532-2.086-2.298-3.13.851-1.158 1.766-2.407 2.708-3.693q1.128 1.166 2.246 2.337c1.888 1.968 3.75 3.959 5.633 5.931 1.011 1.06 2.023 2.123 3.07 3.149.99.975.635 2.749-.85 4.023zm50.512-45.063v20.873q0 2.258 1.005 3.627 1.004 1.37 3.406 1.37h4.442q2.4 0 3.406-1.37 1.005-1.37 1.006-3.627V2.205h-5.253V22.15q0 .445-.179.665-.182.222-.57.223h-1.262q-.39 0-.57-.223-.18-.22-.18-.665V2.205zm26.676 16.421q1.01-.335 1.578-1.109 1.004-1.37 1.004-3.627V7.202q0-2.258-1.004-3.627-1.006-1.37-3.407-1.37h-8.913v25.87h5.252V17.872l.336 1.015 3.055 9.188h5.642zm-2.669-5.42q0 .444-.181.664-.178.222-.57.222h-2.07v-6.85h2.07q.391.001.57.221.18.222.181.665zm21.171.04q.286-1.17.286-2.74V7.202q0-2.258-1.006-3.627-1.006-1.37-3.405-1.37h-8.823v25.87h8.823q2.4 0 3.405-1.37 1.006-1.37 1.006-3.627v-3.87q0-1.529-.286-2.578-.284-1.047-1.156-1.57.872-.645 1.156-1.814m-4.876 9.308q0 .443-.18.665-.18.221-.57.221h-2.16v-6.004h2.16q.39.001.57.221.18.223.18.666zm0-10.638q0 .443-.18.665-.18.221-.57.221h-2.16V6.84h2.16q.39 0 .57.221.18.222.18.665zm17.825-9.711h-6.391l-4.953 25.87h5.162l.632-3.87h4.607l.613 3.87h5.281zm-4.732 17.004 1.521-9.307 1.476 9.307zM182.5 2.205h-4.801v13.822l-4.292-13.822h-4.501v25.87h4.801v-13.58l4.292 13.58h4.501zm-62.935 43.326q.347-1.427.348-3.345v-4.033q0-2.754-1.228-4.428-1.229-1.672-4.157-1.672h-10.771v31.581h10.771q2.931 0 4.157-1.672 1.227-1.672 1.228-4.427v-4.722q0-1.87-.348-3.149-.35-1.279-1.41-1.918 1.063-.786 1.41-2.213zm-5.954 11.364q0 .542-.22.811-.22.272-.696.27h-2.638v-7.328h2.638q.475 0 .696.27.22.272.22.812zm0-12.986q0 .54-.22.811-.22.27-.696.27h-2.638v-7.28h2.638q.475 0 .696.27.22.273.22.812zM129.4 32.052h-6.41v31.58h6.41zm13.629 31.582V38.201h4.543v-6.15h-15.46v6.15h4.507v25.433zM164.388 38.2v-6.148h-14.105v31.582h14.434v-6.15h-8.024v-6.69h6.631v-6.149h-6.631v-6.444zm2.38 15.545v3.788q0 2.755 1.228 4.428 1.226 1.672 4.158 1.672h4.983q2.931 0 4.14-1.672t1.209-4.428V51.04q0-2.754-1.081-4.378-1.08-1.623-3.939-1.623h-3.444q-.476 0-.696-.27t-.221-.812v-4.672q0-.542.221-.812.22-.27.696-.27h1.062q.476 0 .696.27.22.273.22.812v2.657h6.411v-3.788q0-2.754-1.209-4.428-1.209-1.672-4.14-1.672h-5.018q-2.932.001-4.141 1.672-1.209 1.673-1.208 4.428v6.494q0 2.755 1.044 4.477 1.044 1.721 3.902 1.72h3.518q.476.001.696.271.22.273.22.812v4.477q0 .54-.22.81-.22.272-.696.271h-1.062q-.476 0-.696-.27t-.221-.812v-2.656h-6.41z" fill="#DBC7BD"/></g><defs><clipPath id="a"><path fill="#fff" d="M.5 0h182v66H.5z"/></clipPath></defs></svg>