<svg width="0" height="0" class="hidden">
  <symbol fill="none" xmlns="http://www.w3.org/2000/svg" viewBox="0 0 183 66" id="logo-cream">
    <g clip-path="url(#a)">
      <path d="M39.996 66q1.132 0 2.24-.019h-4.481q1.108.02 2.241.019" fill="red"></path>
      <path d="M67.71 60.015q.002-.199-.061-.398c-.055-.178-.95-.313-2.031-.313H55.155c5.245-3.301 9.899-8.228 13.66-14.347.307.18.627.35.956.501 7.472 3.484 16.997-1.431 21.273-10.974 4.274-9.545 1.686-20.109-5.786-23.59-2.06-.96-4.277-1.285-6.495-1.045a84 84 0 0 0-.032-6.858C78.653 1.314 77.388 0 75.863 0H3.453C1.93 0 .665 1.314.589 2.99A82 82 0 0 0 .5 6.81c0 23.528 9.744 43.736 23.664 52.494h-9.792c-1.081 0-1.979.135-2.031.313a1.3 1.3 0 0 0-.062.398c0 3.144 11.216 5.72 25.477 5.966h4.482c14.258-.247 25.474-2.822 25.474-5.966zm10.456-42.78c1.81-.682 3.544-.74 4.9-.112 3.658 1.708 5.401 8.87 2.25 15.9S75.717 43.4 72.055 41.69a4.8 4.8 0 0 1-1.032-.662c3.536-6.893 6.032-14.99 7.142-23.793M23.559 14.64l-.007-.007c-.242-.288.227-.86.663-.804 1.421.2 2.625.646 3.778 1.168 3.137 1.416 5.811 3.333 8.162 5.595.924.89 1.822 1.807 2.775 2.676.453.42.574.953.249 1.705-.131.3-.224.575-.283.837-.56.584-1.114 1.168-1.66 1.739-.516.538-1.03 1.08-1.546 1.615-3.95-4.916-8.071-9.692-12.131-14.524m13.608 22.403c-1.587 2.158-3.197 4.288-4.79 6.442a135 135 0 0 0-2.524 3.502l-.074.098a3 3 0 0 1-.158.175c-.367.353-.872.527-1.429.527-.766 0-1.641-.328-2.433-.975-1.418-1.157-1.905-2.907-.99-3.868 2.488-2.604 5.017-5.167 7.523-7.752 1.495-1.542 2.983-3.09 4.474-4.638l.026-.025 2.551-2.676a268 268 0 0 1 2.397-2.492c.348-.354.359-.752.081-1.401-1.132-2.614-1.047-4.795.254-6.402 2.19-2.71 4.47-5.345 6.717-8.005q.056-.067.117-.121l.238-.285c.081-.099.209-.143.352-.143.21 0 .456.095.671.274.367.307.503.749.305.981l-5.251 6.238c-.213.251-.069.724.329 1.055q.133.11.271.178c.326.167.663.16.825-.037l5.255-6.238a.46.46 0 0 1 .356-.143c.206 0 .452.096.664.274l.102.084c.368.307.503.745.309.982l-5.257 6.238c-.209.251-.062.724.33 1.055.117.098.244.168.367.222q.094.034.183.054c.224.051.433.007.553-.135l5.254-6.238c.08-.098.206-.143.351-.143.21 0 .456.095.671.274l.102.084c.366.307.503.745.304.982L50.94 21.28c-.212.252-.065.724.33 1.055.085.07.18.132.269.178.329.167.663.158.829-.036l5.254-6.238c.082-.099.21-.143.353-.143.206 0 .453.095.67.273l.023.02c.367.306.503.747.305.981l-5.896 7.005c-.353.423-.7.806-1.045 1.237a4.4 4.4 0 0 1-2.015 1.424 5 5 0 0 1-.552.161 6.6 6.6 0 0 1-1.533.167q-1.088 0-2.345-.288c-.055-.011-.102-.022-.154-.03a3 3 0 0 0-.274-.037q-.065-.005-.125-.006c-.365 0-.62.13-.82.412a1754 1754 0 0 1-4.857 6.652c-.73.995-1.46 1.993-2.193 2.986zm16.078 10.225c-1.389 1.19-3.217 1.348-4.023.263-2.185-2.943-4.324-5.92-6.484-8.88-.764-1.046-1.532-2.086-2.298-3.13.851-1.158 1.766-2.407 2.708-3.693q1.128 1.166 2.246 2.337c1.888 1.968 3.75 3.959 5.633 5.931 1.011 1.06 2.023 2.123 3.07 3.149.99.975.635 2.749-.85 4.023zm50.512-45.063v20.873q0 2.258 1.005 3.627 1.004 1.37 3.406 1.37h4.442q2.4 0 3.406-1.37 1.005-1.37 1.006-3.627V2.205h-5.253V22.15q0 .445-.179.665-.182.222-.57.223h-1.262q-.39 0-.57-.223-.18-.22-.18-.665V2.205zm26.676 16.421q1.01-.335 1.578-1.109 1.004-1.37 1.004-3.627V7.202q0-2.258-1.004-3.627-1.006-1.37-3.407-1.37h-8.913v25.87h5.252V17.872l.336 1.015 3.055 9.188h5.642zm-2.669-5.42q0 .444-.181.664-.178.222-.57.222h-2.07v-6.85h2.07q.391.001.57.221.18.222.181.665zm21.171.04q.286-1.17.286-2.74V7.202q0-2.258-1.006-3.627-1.006-1.37-3.405-1.37h-8.823v25.87h8.823q2.4 0 3.405-1.37 1.006-1.37 1.006-3.627v-3.87q0-1.529-.286-2.578-.284-1.047-1.156-1.57.872-.645 1.156-1.814m-4.876 9.308q0 .443-.18.665-.18.221-.57.221h-2.16v-6.004h2.16q.39.001.57.221.18.223.18.666zm0-10.638q0 .443-.18.665-.18.221-.57.221h-2.16V6.84h2.16q.39 0 .57.221.18.222.18.665zm17.825-9.711h-6.391l-4.953 25.87h5.162l.632-3.87h4.607l.613 3.87h5.281zm-4.732 17.004 1.521-9.307 1.476 9.307zM182.5 2.205h-4.801v13.822l-4.292-13.822h-4.501v25.87h4.801v-13.58l4.292 13.58h4.501zm-62.935 43.326q.347-1.427.348-3.345v-4.033q0-2.754-1.228-4.428-1.229-1.672-4.157-1.672h-10.771v31.581h10.771q2.931 0 4.157-1.672 1.227-1.672 1.228-4.427v-4.722q0-1.87-.348-3.149-.35-1.279-1.41-1.918 1.063-.786 1.41-2.213zm-5.954 11.364q0 .542-.22.811-.22.272-.696.27h-2.638v-7.328h2.638q.475 0 .696.27.22.272.22.812zm0-12.986q0 .54-.22.811-.22.27-.696.27h-2.638v-7.28h2.638q.475 0 .696.27.22.273.22.812zM129.4 32.052h-6.41v31.58h6.41zm13.629 31.582V38.201h4.543v-6.15h-15.46v6.15h4.507v25.433zM164.388 38.2v-6.148h-14.105v31.582h14.434v-6.15h-8.024v-6.69h6.631v-6.149h-6.631v-6.444zm2.38 15.545v3.788q0 2.755 1.228 4.428 1.226 1.672 4.158 1.672h4.983q2.931 0 4.14-1.672t1.209-4.428V51.04q0-2.754-1.081-4.378-1.08-1.623-3.939-1.623h-3.444q-.476 0-.696-.27t-.221-.812v-4.672q0-.542.221-.812.22-.27.696-.27h1.062q.476 0 .696.27.22.273.22.812v2.657h6.411v-3.788q0-2.754-1.209-4.428-1.209-1.672-4.14-1.672h-5.018q-2.932.001-4.141 1.672-1.209 1.673-1.208 4.428v6.494q0 2.755 1.044 4.477 1.044 1.721 3.902 1.72h3.518q.476.001.696.271.22.273.22.812v4.477q0 .54-.22.81-.22.272-.696.271h-1.062q-.476 0-.696-.27t-.221-.812v-2.656h-6.41z" fill="#DBC7BD"></path>
    </g>
    <defs>
      <clipPath id="a">
        <path fill="#fff" d="M.5 0h182v66H.5z"></path>
      </clipPath>
    </defs>
  </symbol>
  <symbol fill="none" xmlns="http://www.w3.org/2000/svg" viewBox="0 0 148 54" id="logo-orange-brown">
    <path d="m47.302 13.403-.018-.016c-.176-.145-.378-.223-.545-.223-.117 0-.221.036-.287.117l-4.273 5.103c-.136.16-.408.167-.674.03a1 1 0 0 1-.218-.145c-.322-.27-.441-.658-.269-.863l4.27-5.104c.164-.194.051-.552-.246-.803l-.083-.07a.9.9 0 0 0-.546-.223c-.116 0-.22.036-.285.117l-4.273 5.104c-.096.116-.268.152-.45.11a1 1 0 0 1-.149-.044 1.2 1.2 0 0 1-.297-.182c-.32-.27-.439-.657-.269-.863l4.274-5.104c.159-.194.048-.55-.25-.803l-.083-.069a.88.88 0 0 0-.54-.224.37.37 0 0 0-.29.117l-4.273 5.104c-.134.162-.408.167-.671.03a1 1 0 0 1-.22-.146c-.323-.27-.44-.657-.268-.863l4.27-5.104c.161-.188.05-.55-.248-.803a.9.9 0 0 0-.545-.224c-.117 0-.221.037-.287.118l-.194.233a1 1 0 0 0-.095.099c-1.826 2.177-3.68 4.334-5.462 6.55-1.058 1.314-1.127 3.1-.207 5.237.226.531.216.855-.067 1.147q-.98 1.014-1.948 2.038l-2.075 2.19-.021.02c-1.213 1.267-2.423 2.534-3.638 3.795-2.039 2.115-4.095 4.212-6.118 6.343-.743.786-.348 2.22.805 3.164.644.531 1.355.798 1.979.798.453 0 .862-.143 1.162-.43q.067-.068.128-.144.029-.036.06-.08a105 105 0 0 1 2.053-2.866c1.296-1.762 2.604-3.505 3.895-5.27q.894-1.22 1.783-2.443a1154 1154 0 0 0 3.95-5.442.75.75 0 0 1 .666-.338q.05 0 .102.006.105.008.223.03c.042.006.08.015.125.024a8.6 8.6 0 0 0 1.907.236q.666.001 1.246-.137a4 4 0 0 0 .45-.131 3.6 3.6 0 0 0 1.638-1.165c.28-.353.561-.667.85-1.013l4.794-5.731c.161-.191.05-.552-.248-.803zm-6.214 19.402c-1.532-1.614-3.046-3.242-4.58-4.852a505 505 0 0 0-1.827-1.912c-.766 1.051-1.509 2.073-2.202 3.02.623.855 1.246 1.706 1.868 2.561 1.758 2.422 3.497 4.858 5.273 7.266.656.888 2.142.759 3.272-.215 1.207-1.043 1.498-2.494.692-3.292-.852-.84-1.675-1.709-2.497-2.576zM29.873 22.54c.444-.468.894-.945 1.35-1.422.048-.215.125-.44.23-.685.265-.616.166-1.052-.203-1.395-.775-.711-1.504-1.46-2.256-2.19-1.911-1.852-4.086-3.42-6.637-4.578-.936-.427-1.917-.791-3.072-.955-.355-.046-.736.422-.54.657l.006.007c3.302 3.953 6.654 7.86 9.865 11.882q.63-.658 1.257-1.32Z" fill="#514339"></path>
    <path d="M68.924 8.915c-1.675-.786-3.478-1.052-5.282-.855a69 69 0 0 0-.026-5.612C63.551 1.076 62.523.001 61.283.001H2.402C1.162 0 .134 1.075.072 2.447A67 67 0 0 0 0 5.572c0 19.25 7.924 35.784 19.243 42.95H11.28c-.879 0-1.608.11-1.651.256a1 1 0 0 0-.05.325C9.578 51.81 19.668 54 32.117 54s22.537-2.19 22.537-4.897q0-.162-.05-.325c-.045-.146-.773-.257-1.652-.257h-8.509c4.266-2.7 8.05-6.732 11.108-11.738q.376.222.778.41c6.076 2.85 13.822-1.171 17.3-8.979 3.475-7.81 1.37-16.452-4.706-19.3ZM18.75 11.978l-.005-.007c-.198-.235.184-.703.538-.657 1.156.164 2.135.528 3.072.955 2.552 1.159 4.726 2.727 6.638 4.578.751.73 1.481 1.479 2.256 2.19.369.343.468.78.203 1.395a4 4 0 0 0-.23.685c-.456.477-.906.955-1.35 1.422-.42.44-.838.884-1.257 1.321-3.212-4.022-6.563-7.93-9.865-11.882m13.727 17.084c.693-.948 1.436-1.97 2.203-3.021q.916.954 1.826 1.912c1.535 1.61 3.049 3.238 4.58 4.852.823.867 1.646 1.737 2.498 2.576.805.798.515 2.25-.692 3.292-1.13.974-2.617 1.103-3.272.215-1.776-2.408-3.516-4.843-5.273-7.266q-.932-1.28-1.868-2.56zM47.55 14.206l-4.795 5.731c-.287.346-.569.66-.85 1.013a3.6 3.6 0 0 1-1.638 1.165 5 5 0 0 1-.449.131 5.4 5.4 0 0 1-1.246.137 8.5 8.5 0 0 1-1.908-.235q-.064-.015-.124-.025a3 3 0 0 0-.224-.03 1 1 0 0 0-.1-.005c-.298 0-.505.106-.668.337a1462 1462 0 0 1-3.95 5.442q-.89 1.223-1.782 2.443c-1.291 1.765-2.6 3.508-3.896 5.27-.694.948-1.389 1.897-2.052 2.865l-.06.081q-.061.074-.129.143c-.298.288-.709.431-1.162.431-.623 0-1.334-.268-1.978-.798-1.153-.946-1.55-2.378-.805-3.164 2.023-2.13 4.08-4.228 6.118-6.343 1.215-1.261 2.425-2.528 3.638-3.794l.02-.021 2.075-2.19a220 220 0 0 1 1.949-2.038c.283-.29.292-.616.066-1.147-.92-2.138-.851-3.923.208-5.238 1.781-2.216 3.635-4.373 5.462-6.55a1 1 0 0 1 .095-.098l.194-.233c.066-.081.17-.117.286-.117.17 0 .37.078.546.223.298.252.409.614.248.804l-4.27 5.103c-.173.206-.056.593.267.863q.108.09.22.146c.265.137.54.132.672-.03L41.8 9.374a.37.37 0 0 1 .29-.117.88.88 0 0 1 .54.224l.082.07c.3.25.41.608.251.802l-4.274 5.104c-.17.206-.05.592.269.863a1.2 1.2 0 0 0 .297.182q.076.027.15.045c.181.041.351.005.448-.111l4.273-5.104c.065-.08.168-.117.286-.117.17 0 .37.078.545.224l.084.069c.297.251.409.609.246.803l-4.27 5.104c-.173.205-.053.592.269.863.068.057.145.108.218.145.267.137.538.13.674-.03l4.273-5.103a.36.36 0 0 1 .286-.117c.168 0 .37.078.546.223l.018.016c.299.251.409.612.248.803v-.009Zm21.42 12.812c-2.561 5.752-7.805 8.49-10.782 7.093a4 4 0 0 1-.84-.542c2.875-5.64 4.905-12.264 5.807-19.467 1.472-.558 2.882-.607 3.985-.092 2.974 1.398 4.392 7.256 1.83 13.008" fill="#302721"></path>
    <path d="M31.453 20.43a4 4 0 0 0-.23.685c-.456.478-.906.956-1.35 1.423-.42.44-.838.884-1.257 1.321-3.212-4.022-6.563-7.93-9.865-11.883l-.005-.006c-.197-.236.184-.703.539-.657 1.155.164 2.134.528 3.072.955 2.551 1.158 4.726 2.727 6.637 4.578.752.729 1.481 1.479 2.256 2.19.37.343.468.779.203 1.395Zm11.439 18.243c-1.13.974-2.617 1.103-3.272.215-1.776-2.408-3.516-4.843-5.273-7.266q-.932-1.28-1.868-2.56l2.202-3.021q.916.954 1.827 1.912c1.534 1.61 3.048 3.238 4.58 4.852.822.867 1.645 1.737 2.497 2.576.805.798.515 2.25-.692 3.292z" fill="#E26134"></path>
    <path d="m47.552 14.206-4.795 5.731c-.287.346-.569.66-.85 1.013a3.6 3.6 0 0 1-1.638 1.165 4 4 0 0 1-.45.131 5.4 5.4 0 0 1-1.246.137q-.885 0-1.907-.235-.064-.015-.125-.025a3 3 0 0 0-.223-.03 1 1 0 0 0-.101-.005c-.298 0-.504.106-.668.337-.619.86-1.24 1.715-1.863 2.574q-1.04 1.436-2.086 2.868-.89 1.223-1.783 2.443c-1.29 1.765-2.6 3.508-3.895 5.27-.695.948-1.39 1.897-2.053 2.865q-.03.044-.06.081-.061.074-.128.143c-.299.288-.709.431-1.162.431-.623 0-1.335-.268-1.979-.798-1.153-.946-1.549-2.378-.805-3.164 2.023-2.13 4.08-4.228 6.118-6.343 1.215-1.261 2.425-2.528 3.638-3.794l.021-.021 2.075-2.19a222 222 0 0 1 1.949-2.038c.283-.29.292-.616.066-1.147-.92-2.138-.852-3.923.208-5.238 1.781-2.216 3.635-4.373 5.462-6.55a1 1 0 0 1 .095-.098l.193-.233c.066-.081.17-.117.287-.117.17 0 .37.078.545.223.299.252.41.614.248.804l-4.27 5.103c-.173.206-.056.593.267.863q.109.09.221.146c.265.137.539.132.671-.03l4.273-5.104a.37.37 0 0 1 .29-.117.88.88 0 0 1 .54.224l.083.07c.299.25.41.608.25.802l-4.274 5.104c-.17.206-.05.592.27.863a1.2 1.2 0 0 0 .297.182q.075.027.149.045c.182.041.352.005.45-.111l4.272-5.104c.065-.08.168-.117.286-.117.17 0 .37.078.545.224l.083.069c.297.251.41.609.247.803l-4.27 5.104c-.173.205-.054.592.268.863.069.057.146.108.218.146.268.136.54.128.674-.03l4.273-5.104c.066-.08.17-.117.287-.117.168 0 .369.078.545.223l.019.016c.298.251.408.612.248.803zM94.754 1.804v17.078q0 1.846-.818 2.967-.819 1.12-2.77 1.121h-3.612q-1.953 0-2.77-1.12-.816-1.122-.817-2.968V1.804h4.27v16.319q0 .364.147.544.146.181.463.182h1.026q.316 0 .464-.182.145-.18.145-.544V1.804zM105.66 15.24q.822-.275 1.283-.908.817-1.12.817-2.967V5.893q0-1.848-.817-2.968-.818-1.12-2.771-1.12h-7.247V22.97h4.27v-8.347l.274.83 2.484 7.517h4.588zm-2.171-4.435q0 .363-.146.543-.147.181-.464.182h-1.684V5.925h1.684q.317 0 .464.181.146.182.146.544zm17.217.033q.231-.957.232-2.242V5.893q0-1.848-.818-2.968t-2.769-1.12h-7.175V22.97h7.175q1.951 0 2.769-1.12.818-1.122.818-2.968v-3.166q0-1.25-.232-2.11-.232-.856-.94-1.285.708-.527.94-1.483m-3.966 7.615q0 .363-.146.544t-.464.181h-1.757v-4.912h1.757q.318 0 .464.18.146.183.146.545zm0-8.704q0 .363-.146.544t-.464.181h-1.757V5.596h1.757q.318 0 .464.18.146.182.146.545zm14.495-7.945h-5.197L122.01 22.97h4.198l.514-3.165h3.746l.499 3.165h4.295zm-3.848 13.912 1.237-7.615 1.2 7.615zm16.709-13.912v11.309l-3.49-11.309h-3.66V22.97h3.904V11.86l3.49 11.11H148V1.804z" fill="#E26134"></path>
    <path d="M83.967 26.224h8.759q2.384 0 3.38 1.368 1 1.369 1 3.623v3.3q-.001 1.569-.284 2.737-.284 1.167-1.146 1.81.863.524 1.146 1.57t.283 2.576v3.863q0 2.255-.998 3.623-.999 1.368-3.381 1.368h-8.76v-25.84.002Zm8.014 9.7v-4.186q0-.444-.18-.664-.179-.22-.566-.221H89.09v5.956h2.145q.388 0 .566-.221.18-.221.18-.664m0 10.625v-4.226q0-.443-.18-.664-.179-.22-.566-.221H89.09v5.996h2.145q.388 0 .566-.22.18-.222.18-.665m7.626-20.325h5.213v25.84h-5.213zm19.99 0v5.031h-3.694v20.81h-5.213v-20.81h-3.665v-5.03zm13.942 20.808v5.032h-11.738v-25.84h11.47v5.031h-6.257v5.273h5.392v5.03h-5.392v5.474zm9.235-.885v-3.663q0-.443-.179-.663-.18-.222-.566-.222h-2.861q-2.323.001-3.173-1.408-.849-1.409-.849-3.663v-5.313q0-2.253.983-3.623.983-1.368 3.367-1.368h4.08q2.384 0 3.367 1.368t.983 3.623v3.099h-5.213V32.14q0-.443-.179-.664-.18-.22-.566-.221h-.864q-.387 0-.566.221-.179.223-.179.664v3.823q0 .444.179.664.18.221.566.221h2.801q2.323 0 3.203 1.328t.879 3.582v5.313q0 2.255-.983 3.623t-3.367 1.368h-4.052q-2.383 0-3.381-1.368t-.998-3.623v-3.099h5.213v2.174q0 .443.179.664t.566.221h.863q.388 0 .567-.221t.179-.664z" fill="#302721"></path>
  </symbol>
  <symbol fill="none" xmlns="http://www.w3.org/2000/svg" viewBox="0 0 148 54" id="logo-orange-white">
    <path d="m47.302 13.403-.018-.016c-.176-.145-.378-.223-.545-.223-.117 0-.221.036-.287.117l-4.273 5.103c-.136.16-.408.167-.674.03a1 1 0 0 1-.218-.145c-.322-.27-.441-.658-.269-.863l4.27-5.104c.164-.194.051-.552-.246-.803l-.083-.07a.9.9 0 0 0-.546-.223c-.116 0-.22.036-.285.117l-4.273 5.104c-.096.116-.268.152-.45.11a1 1 0 0 1-.149-.044 1.2 1.2 0 0 1-.297-.182c-.32-.27-.439-.657-.269-.863l4.274-5.104c.159-.194.048-.55-.25-.803l-.083-.069a.88.88 0 0 0-.54-.224.37.37 0 0 0-.29.117l-4.273 5.104c-.134.162-.408.167-.671.03a1 1 0 0 1-.22-.146c-.323-.27-.44-.657-.268-.863l4.27-5.104c.161-.188.05-.55-.248-.803a.9.9 0 0 0-.545-.224c-.117 0-.221.037-.287.118l-.194.233a1 1 0 0 0-.095.099c-1.826 2.177-3.68 4.334-5.462 6.55-1.058 1.314-1.127 3.1-.207 5.237.226.531.216.855-.067 1.147q-.98 1.014-1.948 2.038l-2.075 2.19-.021.02c-1.213 1.267-2.423 2.534-3.638 3.795-2.039 2.115-4.095 4.212-6.118 6.343-.743.786-.348 2.22.805 3.164.644.531 1.355.798 1.979.798.453 0 .862-.143 1.162-.43q.067-.068.128-.144.029-.036.06-.08a105 105 0 0 1 2.053-2.866c1.296-1.762 2.604-3.505 3.895-5.27q.894-1.22 1.783-2.443a1154 1154 0 0 0 3.95-5.442.75.75 0 0 1 .666-.338q.05 0 .102.006.105.008.223.03c.042.006.08.015.125.024a8.6 8.6 0 0 0 1.907.236q.666.001 1.246-.137a4 4 0 0 0 .45-.131 3.6 3.6 0 0 0 1.638-1.165c.28-.353.561-.667.85-1.013l4.794-5.731c.161-.191.05-.552-.248-.803zm-6.214 19.402c-1.532-1.614-3.046-3.242-4.58-4.852a505 505 0 0 0-1.827-1.912c-.766 1.051-1.509 2.073-2.202 3.02.623.855 1.246 1.706 1.868 2.561 1.758 2.422 3.497 4.858 5.273 7.266.656.888 2.142.759 3.272-.215 1.207-1.043 1.498-2.494.692-3.292-.852-.84-1.675-1.709-2.497-2.576zM29.873 22.54c.444-.468.894-.945 1.35-1.422.048-.215.125-.44.23-.685.265-.616.166-1.052-.203-1.395-.775-.711-1.504-1.46-2.256-2.19-1.911-1.852-4.086-3.42-6.637-4.578-.936-.427-1.917-.791-3.072-.955-.355-.046-.736.422-.54.657l.006.007c3.302 3.953 6.654 7.86 9.865 11.882q.63-.658 1.257-1.32Z" fill="#514339"></path>
    <path d="M68.924 8.915c-1.675-.786-3.478-1.052-5.282-.855a69 69 0 0 0-.026-5.612C63.551 1.076 62.523.001 61.283.001H2.402C1.162 0 .134 1.075.072 2.447A67 67 0 0 0 0 5.572c0 19.25 7.924 35.784 19.243 42.95H11.28c-.879 0-1.608.11-1.651.256a1 1 0 0 0-.05.325C9.578 51.81 19.668 54 32.117 54s22.537-2.19 22.537-4.897q0-.162-.05-.325c-.045-.146-.773-.257-1.652-.257h-8.509c4.266-2.7 8.05-6.732 11.108-11.738q.376.222.778.41c6.076 2.85 13.822-1.171 17.3-8.979 3.475-7.81 1.37-16.452-4.706-19.3ZM18.75 11.978l-.005-.007c-.198-.235.184-.703.538-.657 1.156.164 2.135.528 3.072.955 2.552 1.159 4.726 2.727 6.638 4.578.751.73 1.481 1.479 2.256 2.19.369.343.468.78.203 1.395a4 4 0 0 0-.23.685c-.456.477-.906.955-1.35 1.422-.42.44-.838.884-1.257 1.321-3.212-4.022-6.563-7.93-9.865-11.882m13.727 17.084c.693-.948 1.436-1.97 2.203-3.021q.916.954 1.826 1.912c1.535 1.61 3.049 3.238 4.58 4.852.823.867 1.646 1.737 2.498 2.576.805.798.515 2.25-.692 3.292-1.13.974-2.617 1.103-3.272.215-1.776-2.408-3.516-4.843-5.273-7.266q-.932-1.28-1.868-2.56zM47.55 14.206l-4.795 5.731c-.287.346-.569.66-.85 1.013a3.6 3.6 0 0 1-1.638 1.165 5 5 0 0 1-.449.131 5.4 5.4 0 0 1-1.246.137 8.5 8.5 0 0 1-1.908-.235q-.064-.015-.124-.025a3 3 0 0 0-.224-.03 1 1 0 0 0-.1-.005c-.298 0-.505.106-.668.337a1462 1462 0 0 1-3.95 5.442q-.89 1.223-1.782 2.443c-1.291 1.765-2.6 3.508-3.896 5.27-.694.948-1.389 1.897-2.052 2.865l-.06.081q-.061.074-.129.143c-.298.288-.709.431-1.162.431-.623 0-1.334-.268-1.978-.798-1.153-.946-1.55-2.378-.805-3.164 2.023-2.13 4.08-4.228 6.118-6.343 1.215-1.261 2.425-2.528 3.638-3.794l.02-.021 2.075-2.19a220 220 0 0 1 1.949-2.038c.283-.29.292-.616.066-1.147-.92-2.138-.851-3.923.208-5.238 1.781-2.216 3.635-4.373 5.462-6.55a1 1 0 0 1 .095-.098l.194-.233c.066-.081.17-.117.286-.117.17 0 .37.078.546.223.298.252.409.614.248.804l-4.27 5.103c-.173.206-.056.593.267.863q.108.09.22.146c.265.137.54.132.672-.03L41.8 9.374a.37.37 0 0 1 .29-.117.88.88 0 0 1 .54.224l.082.07c.3.25.41.608.251.802l-4.274 5.104c-.17.206-.05.592.269.863a1.2 1.2 0 0 0 .297.182q.076.027.15.045c.181.041.351.005.448-.111l4.273-5.104c.065-.08.168-.117.286-.117.17 0 .37.078.545.224l.084.069c.297.251.409.609.246.803l-4.27 5.104c-.173.205-.053.592.269.863.068.057.145.108.218.145.267.137.538.13.674-.03l4.273-5.103a.36.36 0 0 1 .286-.117c.168 0 .37.078.546.223l.018.016c.299.251.409.612.248.803v-.009Zm21.42 12.812c-2.561 5.752-7.805 8.49-10.782 7.093a4 4 0 0 1-.84-.542c2.875-5.64 4.905-12.264 5.807-19.467 1.472-.558 2.882-.607 3.985-.092 2.974 1.398 4.392 7.256 1.83 13.008" fill="#E26134"></path>
    <path d="M31.453 20.43a4 4 0 0 0-.23.685c-.456.478-.906.956-1.35 1.423-.42.44-.838.884-1.257 1.321-3.212-4.022-6.563-7.93-9.865-11.883l-.005-.006c-.197-.236.184-.703.539-.657 1.155.164 2.134.528 3.072.955 2.551 1.158 4.726 2.727 6.637 4.578.752.729 1.481 1.479 2.256 2.19.37.343.468.779.203 1.395Zm11.439 18.243c-1.13.974-2.617 1.103-3.272.215-1.776-2.408-3.516-4.843-5.273-7.266q-.932-1.28-1.868-2.56l2.202-3.021q.916.954 1.827 1.912c1.534 1.61 3.048 3.238 4.58 4.852.822.867 1.645 1.737 2.497 2.576.805.798.515 2.25-.692 3.292z" fill="#EFE8E4"></path>
    <path d="m47.552 14.206-4.795 5.731c-.287.346-.569.66-.85 1.013a3.6 3.6 0 0 1-1.638 1.165 4 4 0 0 1-.45.131 5.4 5.4 0 0 1-1.246.137q-.885 0-1.907-.235-.064-.015-.125-.025a3 3 0 0 0-.223-.03 1 1 0 0 0-.101-.005c-.298 0-.504.106-.668.337-.619.86-1.24 1.715-1.863 2.574q-1.04 1.436-2.086 2.868-.89 1.223-1.783 2.443c-1.29 1.765-2.6 3.508-3.895 5.27-.695.948-1.39 1.897-2.053 2.865q-.03.044-.06.081-.061.074-.128.143c-.299.288-.709.431-1.162.431-.623 0-1.335-.268-1.979-.798-1.153-.946-1.549-2.378-.805-3.164 2.023-2.13 4.08-4.228 6.118-6.343 1.215-1.261 2.425-2.528 3.638-3.794l.021-.021 2.075-2.19a222 222 0 0 1 1.949-2.038c.283-.29.292-.616.066-1.147-.92-2.138-.852-3.923.208-5.238 1.781-2.216 3.635-4.373 5.462-6.55a1 1 0 0 1 .095-.098l.193-.233c.066-.081.17-.117.287-.117.17 0 .37.078.545.223.299.252.41.614.248.804l-4.27 5.103c-.173.206-.056.593.267.863q.109.09.221.146c.265.137.539.132.671-.03l4.273-5.104a.37.37 0 0 1 .29-.117.88.88 0 0 1 .54.224l.083.07c.299.25.41.608.25.802l-4.274 5.104c-.17.206-.05.592.27.863a1.2 1.2 0 0 0 .297.182q.075.027.149.045c.182.041.352.005.45-.111l4.272-5.104c.065-.08.168-.117.286-.117.17 0 .37.078.545.224l.083.069c.297.251.41.609.247.803l-4.27 5.104c-.173.205-.054.592.268.863.069.057.146.108.218.146.268.136.54.128.674-.03l4.273-5.104c.066-.08.17-.117.287-.117.168 0 .369.078.545.223l.019.016c.298.251.408.612.248.803zM94.754 1.804v17.078q0 1.846-.818 2.967-.819 1.12-2.77 1.121h-3.612q-1.953 0-2.77-1.12-.816-1.122-.817-2.968V1.804h4.27v16.319q0 .364.147.544.146.181.463.182h1.026q.316 0 .464-.182.145-.18.145-.544V1.804zM105.66 15.24q.822-.275 1.283-.908.817-1.12.817-2.967V5.893q0-1.848-.817-2.968-.818-1.12-2.771-1.12h-7.247V22.97h4.27v-8.347l.274.83 2.484 7.517h4.588zm-2.171-4.435q0 .363-.146.543-.147.181-.464.182h-1.684V5.925h1.684q.317 0 .464.181.146.182.146.544zm17.217.033q.231-.957.232-2.242V5.893q0-1.848-.818-2.968t-2.769-1.12h-7.175V22.97h7.175q1.951 0 2.769-1.12.818-1.122.818-2.968v-3.166q0-1.25-.232-2.11-.232-.856-.94-1.285.708-.527.94-1.483m-3.966 7.615q0 .363-.146.544t-.464.181h-1.757v-4.912h1.757q.318 0 .464.18.146.183.146.545zm0-8.704q0 .363-.146.544t-.464.181h-1.757V5.596h1.757q.318 0 .464.18.146.182.146.545zm14.495-7.945h-5.197L122.01 22.97h4.198l.514-3.165h3.746l.499 3.165h4.295zm-3.848 13.912 1.237-7.615 1.2 7.615zm16.709-13.912v11.309l-3.49-11.309h-3.66V22.97h3.904V11.86l3.49 11.11H148V1.804z" fill="#EFE8E4"></path>
    <path d="M83.967 26.224h8.759q2.384 0 3.38 1.368 1 1.369 1 3.623v3.3q-.001 1.569-.284 2.737-.284 1.167-1.146 1.81.863.524 1.146 1.57t.283 2.576v3.863q0 2.255-.998 3.623-.999 1.368-3.381 1.368h-8.76v-25.84.002Zm8.014 9.7v-4.186q0-.444-.18-.664-.179-.22-.566-.221H89.09v5.956h2.145q.388 0 .566-.221.18-.221.18-.664m0 10.625v-4.226q0-.443-.18-.664-.179-.22-.566-.221H89.09v5.996h2.145q.388 0 .566-.22.18-.222.18-.665m7.626-20.325h5.213v25.84h-5.213zm19.99 0v5.031h-3.694v20.81h-5.213v-20.81h-3.665v-5.03zm13.942 20.808v5.032h-11.738v-25.84h11.47v5.031h-6.257v5.273h5.392v5.03h-5.392v5.474zm9.235-.885v-3.663q0-.443-.179-.663-.18-.222-.566-.222h-2.861q-2.323.001-3.173-1.408-.849-1.409-.849-3.663v-5.313q0-2.253.983-3.623.983-1.368 3.367-1.368h4.08q2.384 0 3.367 1.368t.983 3.623v3.099h-5.213V32.14q0-.443-.179-.664-.18-.22-.566-.221h-.864q-.387 0-.566.221-.179.223-.179.664v3.823q0 .444.179.664.18.221.566.221h2.801q2.323 0 3.203 1.328t.879 3.582v5.313q0 2.255-.983 3.623t-3.367 1.368h-4.052q-2.383 0-3.381-1.368t-.998-3.623v-3.099h5.213v2.174q0 .443.179.664t.566.221h.863q.388 0 .567-.221t.179-.664z" fill="#E26134"></path>
  </symbol>
</svg>